#!OML:ASF F:\VICON\USERDATA\INSTALL\rory3\rory3.ASF
:FULLY-SPECIFIED
:DEGREES
376
root 0.715 17.7854 -17.1984 3.99769 -0.101507 0.774197
lowerback 6.22156 -0.501989 -1.30734
upperback -0.203646 -0.688533 2.05174
thorax -3.66047 -0.298918 2.92155
lowerneck -20.341 -4.08368 -9.77396
upperneck 15.9472 -4.00783 6.41504
head 8.65111 -1.81586 3.24576
rclavicle -3.57812e-015 1.43125e-014
rhumerus -37.9218 -15.7871 -70.9295
rradius 39.7188
rwrist 0.785921
rhand -13.7214 14.9821
rfingers 7.12502
rthumb 12.3978 -14.6303
lclavicle -3.57812e-015 1.43125e-014
lhumerus -37.7851 10.2141 79.6709
lradius 38.8761
lwrist -1.62203
lhand -18.8578 22.9922
lfingers 7.12502
lthumb 7.4424 52.8412
rfemur -6.37177 2.47202 24.7673
rtibia 18.7898
rfoot -11.109 -11.0743
rtoes 5.97178
lfemur -10.2173 -4.81805 -19.3163
ltibia 22.8259
lfoot -12.7068 4.21453
ltoes 0.202663
377
root 0.7157 17.7841 -17.1891 3.88119 -0.0758201 0.631215
lowerback 6.35344 -0.50952 -1.13302
upperback -0.297647 -0.683608 2.08487
thorax -3.83401 -0.296477 2.86049
lowerneck -20.1634 -4.05917 -9.72598
upperneck 16.0433 -3.99645 6.34851
head 8.6496 -1.8185 3.21854
rclavicle 6.16232e-015 -1.98785e-014
rhumerus -37.982 -15.7773 -71.0313
rradius 39.6723
rwrist 0.96862
rhand -13.7019 16.2682
rfingers 7.12502
rthumb 12.4166 -13.343
lclavicle 6.16232e-015 -1.98785e-014
lhumerus -37.8503 10.0983 79.6917
lradius 38.9061
lwrist -1.76231
lhand -18.6112 23.8037
lfingers 7.12502
lthumb 7.68043 53.6442
rfemur -6.21331 2.42445 24.9245
rtibia 18.7945
rfoot -11.1148 -11.0672
rtoes 6.40795
lfemur -10.0462 -4.95287 -19.1622
ltibia 22.7878
lfoot -12.7535 4.30832
ltoes 0.285288
378
root 0.71782 17.7771 -17.1806 3.80092 -0.0104113 0.620734
lowerback 6.37823 -0.530214 -1.04682
upperback -0.295441 -0.705769 2.0568
thorax -3.84569 -0.309357 2.78512
lowerneck -20.1964 -4.02509 -9.54864
upperneck 16.0072 -3.9652 6.1935
head 8.63299 -1.80821 3.13965
rclavicle -9.14409e-015 -1.66979e-014
rhumerus -37.907 -15.6801 -71.2776
rradius 39.8626
rwrist 0.804698
rhand -13.0931 17.5606
rfingers 7.12502
rthumb 13.0034 -12.0142
lclavicle -9.14409e-015 -1.66979e-014
lhumerus -37.7546 9.98056 79.7424
lradius 38.9753
lwrist -1.9371
lhand -18.6381 24.3656
lfingers 7.12502
lthumb 7.6545 54.2071
rfemur -6.122 2.45218 24.9167
rtibia 18.881
rfoot -11.3765 -11.0634
rtoes 7.50114
lfemur -9.9683 -5.05078 -19.1542
ltibia 22.6671
lfoot -12.6277 4.3542
ltoes -0.0302619
379
root 0.71858 17.7711 -17.1722 3.76983 -0.0578439 0.62548
lowerback 6.25714 -0.508671 -1.02625
upperback -0.250189 -0.676394 2.04633
thorax -3.73259 -0.296967 2.7573
lowerneck -20.2054 -3.89228 -9.43253
upperneck 15.7408 -3.80078 6.16517
head 8.52663 -1.72406 3.1308
rclavicle 1.6201e-014 -9.54166e-015
rhumerus -37.8442 -15.4367 -71.5809
rradius 40.3046
rwrist 0.6611
rhand -11.0636 14.0239
rfingers 7.12502
rthumb 14.9592 -15.4158
lclavicle 1.6201e-014 -9.54166e-015
lhumerus -37.5991 10.0222 79.7015
lradius 38.6834
lwrist -2.28011
lhand -18.8118 21.6102
lfingers 7.12502
lthumb 7.48681 51.4577
rfemur -6.08364 2.62134 24.8956
rtibia 18.934
rfoot -11.5653 -11.0419
rtoes 8.71727
lfemur -9.94934 -5.06252 -19.1738
ltibia 22.5829
lfoot -12.4346 4.44483
ltoes -0.245195
